<svg xmlns="http://www.w3.org/2000/svg" viewBox="0 0 737.42 150"><defs><style>.cls-1{fill:#d4ff00;}.cls-2{fill:#0e1116;}.cls-3{fill:#fff;}</style></defs><g id="Layer_2" data-name="Layer 2"><g id="Layer_1-2" data-name="Layer 1"><rect class="cls-1" width="150" height="150" rx="30"/><polygon class="cls-2" points="128.06 82.38 114.51 68.5 98.23 85.26 49.59 35.47 40.44 44.84 36.06 49.37 36.07 49.38 26.31 59.45 21.94 63.95 35.49 77.83 49.63 63.25 98.25 113.03 99.4 111.86 99.42 111.87 111.67 99.27 111.66 99.27 128.06 82.38"/><path class="cls-1" d="M201.57,118.13c-1.14,4.56-1.4,6.4-1.4,9,0,4.82,2.45,7.62,7.89,8.85,4.56,1,9.29,1.23,24.72,1.23,24.36,0,31.73-1.41,36.46-7,3.33-3.94,5.79-11.92,5.79-18.58,0-4.47-1.67-7.36-5.18-8.85-2.54-1.23-4.64-1.49-11.13-1.75-4.64-.18-7.62-.27-8.68-.27H233.48c-7.1-.17-7.19-.17-8.68-1.14a3.16,3.16,0,0,1-1.32-2.71c0-3.34,2.2-5.61,5.79-6,2.8-.26,10.61-.52,17.88-.52,10.26,0,12.36.61,12.36,3.77a12.93,12.93,0,0,1-.26,2h17.27a29.24,29.24,0,0,0,1.14-7.62c0-4.38-1.84-7.28-5.44-8.68-4.29-1.67-8.59-2-26-2-22.88,0-30.24,1.41-35.07,6.75-3.33,3.68-6,12.19-6,18.94,0,4.64,2.19,7.62,6.57,9,2.81.87,7.72,1.31,15.69,1.31h16.13c9.29.09,9.29.09,11,.7a3.25,3.25,0,0,1,2.11,3.33c0,4-2.11,5.79-7.45,6.4-2.19.26-9.65.44-17,.44a76.49,76.49,0,0,1-10.95-.61,3,3,0,0,1-2.55-3,17.26,17.26,0,0,1,.35-3.07Z"/><path class="cls-1" d="M284.11,136.8H301.9l12.45-58.47h-17.8Z"/><path class="cls-1" d="M400.25,98.14a39.18,39.18,0,0,0,1.14-8.24c0-4.2-1.41-7.18-4.21-8.85-4.47-2.81-7.89-3.16-29.19-3.16-15.25,0-22.09.44-27.09,1.67-9.73,2.45-14.11,8.15-17.53,22.79-2.54,10.69-3.59,16.74-3.59,20.51,0,5.52,1.75,9.38,5.17,11.31,4.73,2.63,8.76,3.07,27.44,3.07,10.87,0,20.33,0,22.35-.09,9.46-.26,15.69-4,18.67-11.13,1.58-3.86,2.1-5.7,3.86-14.12l1.75-8.06H359.14l-2.37,10.87H379.3c-1.23,8.06-3.6,9.29-17.45,9-14.9,0-14.9,0-17.53-.35-3.86-.62-5.78-2.63-5.78-6,0-2.89.79-7.36,2.89-15.87,1.49-5.69,3.07-8.06,6.22-9,2.72-.78,2.72-.78,11.84-.78l6.57-.09,6.22.09c6.75,0,6.93,0,8.42.61A3.59,3.59,0,0,1,383.07,96c0,.61-.18,1.4-.27,2.19Z"/><path class="cls-1" d="M406.09,136.8h17.09l8.85-44,25.6,44H486.2l12.37-58.47H481.73l-8.94,44.44L446.85,78.33H418.54Z"/><path class="cls-1" d="M494.18,136.8h20.16l7.8-10.43h37.69l3.6,10.43h19.46L563.34,78.33H539.5Zm36.9-22.62,17.45-23.31,7.71,23.31Z"/><path class="cls-1" d="M591.07,136.8h58l3.07-14.46H611.93l9.38-44H603.52Z"/><path class="cls-1" d="M661.34,118.13c-1.14,4.56-1.41,6.4-1.41,9,0,4.82,2.46,7.62,7.89,8.85,4.56,1,9.29,1.23,24.72,1.23,24.37,0,31.73-1.41,36.47-7,3.33-3.94,5.78-11.92,5.78-18.58,0-4.47-1.67-7.36-5.17-8.85-2.54-1.23-4.65-1.49-11.13-1.75-4.65-.18-7.63-.27-8.68-.27H693.24c-7.1-.17-7.19-.17-8.68-1.14a3.17,3.17,0,0,1-1.31-2.71c0-3.34,2.19-5.61,5.78-6,2.81-.26,10.61-.52,17.89-.52,10.25,0,12.36.61,12.36,3.77a12.08,12.08,0,0,1-.27,2h17.27a28.82,28.82,0,0,0,1.14-7.62c0-4.38-1.84-7.28-5.43-8.68-4.3-1.67-8.59-2-26-2-22.88,0-30.24,1.41-35.06,6.75-3.33,3.68-6,12.19-6,18.94,0,4.64,2.19,7.62,6.58,9,2.8.87,7.71,1.31,15.69,1.31h16.12c9.3.09,9.3.09,11,.7a3.26,3.26,0,0,1,2.1,3.33c0,4-2.1,5.79-7.45,6.4-2.19.26-9.64.44-17,.44a76.77,76.77,0,0,1-11-.61,2.94,2.94,0,0,1-2.54-3,17.26,17.26,0,0,1,.35-3.07Z"/><path class="cls-3" d="M200.14,44.74c-.07.9-.07,1.94-.07,2.36,0,4.36.9,7.13,3,9.13,2.91,2.77,8.1,3.53,24.71,3.53,15.57,0,21.51-1,24.56-3.87,2.28-2.22,3.32-5.54,3.32-10.39,0-4.56-.9-7.61-2.84-9.62-2.9-3.11-7.12-3.87-21-3.87H224c-7.27,0-9.89-.28-11.49-1.18-1.31-.76-1.93-2.08-1.93-4.08s.83-3.74,2.49-4.5c2.07-1,8.16-1.6,16.88-1.6,5.12,0,9.55.56,11.49,1.46,1.45.69,2.14,2.07,2.21,4.77H254V26c0-7.13-2-10.24-7.75-11.9-3.18-1-8.17-1.32-17.44-1.32-15.22,0-22.28,1.11-25.39,4-2.22,1.94-3.46,6.16-3.46,11.28,0,4.08,1,7,3.25,8.93,2.56,2.35,6.37,3.12,16.12,3.18H226c12.59.07,12.66.07,14.6.49,3.18.69,4.36,2,4.36,4.71a6.23,6.23,0,0,1-1.39,3.94c-.83,1-2.14,1.45-4.77,1.8a103.49,103.49,0,0,1-14.33.83c-6.78,0-10.37-.41-12-1.38-1.32-.76-1.87-2.36-1.87-5.33v-.49Z"/><path class="cls-3" d="M266.52,59.35h10.59V45.23h26.7c7.2,0,10.73-.76,13.15-2.91C319.8,39.9,320.9,36,320.9,29c0-9.27-2-13.15-7.75-14.88-2.14-.69-4.63-.9-10.58-.9H266.52Zm10.59-22.71V21.76h24.21c7.13,0,8.86,1.52,8.86,7.75,0,5.68-1.94,7.13-9.34,7.13Z"/><path class="cls-3" d="M330.78,59.35h10.65V13.18H330.78Z"/><path class="cls-3" d="M353.82,59.35h10.59V45h25.67c7-.07,8.44,1.18,8.58,7.48v6.92h10.72V50.21c.07-7.34-1.24-9.14-7.05-9.62,2.76-.48,4.42-1.32,5.81-3.05s2-4.56,2-9.62c0-5.26-1-8.86-3-11.07-2.49-2.7-6.16-3.67-14.25-3.67h-39.1Zm10.59-22.91V21.83h25.53c7.89,0,9.48,1.32,9.48,7.68,0,5.54-1.94,6.93-9.69,6.93Z"/><path class="cls-3" d="M421.53,59.35H471v-8.1H432V39.48h36.68V32.21H432V21.28h38.54v-8.1H421.53Z"/></g></g></svg>